<svg xmlns="http://www.w3.org/2000/svg" x="0px" y="0px" width="100" height="100" viewBox="0 0 48 48">
<path d="M44,24H4c0,0.338,0,1.662,0,2c0,11.028,8.972,20,20,20s20-8.972,20-20C44,25.662,44,24.338,44,24z"></path><circle cx="24" cy="24" r="19" fill="#fff"></circle><path d="M24,44C12.972,44,4,35.028,4,24S12.972,4,24,4s20,8.972,20,20S35.028,44,24,44z M24,6C14.075,6,6,14.075,6,24	s8.075,18,18,18s18-8.075,18-18S33.925,6,24,6z"></path><path d="M26.573,29.038h4.921l0.765-4.993h-5.686V21.31c0-2.078,0.675-3.913,2.618-3.913h3.122v-4.363	c-0.549-0.072-1.709-0.234-3.895-0.234c-4.579,0-7.26,2.411-7.26,7.917v3.329h-4.696v4.993h4.696v13.728	C22.093,42.901,23.028,43,24,43c0.873,0,1.727-0.081,2.573-0.198V29.038z"></path>
</svg>