<svg xmlns="http://www.w3.org/2000/svg"
    xmlns:xlink="http://www.w3.org/1999/xlink" width="500" viewBox="0 0 375 374.999991" height="500" preserveAspectRatio="xMidYMid meet">
    <defs>
        <clipPath id="5d77fdb5e2">
            <path d="M 17.25 0 L 357.75 0 C 362.324219 0 366.710938 1.816406 369.949219 5.050781 C 373.183594 8.289062 375 12.675781 375 17.25 L 375 357.75 C 375 362.324219 373.183594 366.710938 369.949219 369.949219 C 366.710938 373.183594 362.324219 375 357.75 375 L 17.25 375 C 12.675781 375 8.289062 373.183594 5.050781 369.949219 C 1.816406 366.710938 0 362.324219 0 357.75 L 0 17.25 C 0 12.675781 1.816406 8.289062 5.050781 5.050781 C 8.289062 1.816406 12.675781 0 17.25 0 Z M 17.25 0 " clip-rule="nonzero"></path>
        </clipPath>
    </defs>
    <rect x="-37.5" width="450" fill="#ffffff" y="-37.499999" height="449.999989" fill-opacity="1"></rect>
    <rect x="-37.5" width="450" fill="#00ad8e" y="-37.499999" height="449.999989" fill-opacity="1"></rect>
    <g clip-path="url(#5d77fdb5e2)">
        <rect x="-37.5" width="450" fill="#00ad8e" y="-37.499999" height="449.999989" fill-opacity="1"></rect>
    </g>
    <rect x="-37.5" width="450" fill="#d3edea" y="-37.499999" height="449.999989" fill-opacity="1"></rect>
    <path fill="#0d5959" d="M 6.15625 298.953125 C 63.058594 277.554688 124.25 274.921875 184.15625 270.484375 C 240.921875 272.628906 299.667969 273.941406 354.21875 291.304688 C 356.757812 291.773438 372.816406 299.996094 373.03125 296.316406 C 374.890625 294.230469 358.792969 289.699219 355.816406 288.234375 C 349.621094 287.023438 352.738281 277.960938 346.585938 276.558594 C 332.992188 272.917969 329.132812 253.207031 312.332031 258.976562 C 309.667969 259.410156 304.824219 261.871094 304.683594 257.257812 C 304.453125 253.21875 308.15625 254.316406 310.828125 253.980469 C 330.058594 252.671875 343.875 227.21875 327.777344 213.566406 C 320.789062 206.859375 321.652344 196.605469 316.792969 188.769531 C 311.941406 179.179688 300.753906 181.847656 295.597656 189.679688 C 294.1875 191.613281 293.234375 192.039062 291.15625 190.1875 C 284.964844 184.679688 280.140625 178.433594 278.386719 170.128906 C 275.457031 158.894531 267.835938 150.148438 259.382812 150.832031 C 253.96875 151.84375 250.753906 154.046875 246.738281 159.5625 C 241.984375 166.457031 236.117188 172.207031 229.515625 177.367188 C 226.230469 179.929688 222.796875 183.066406 222.714844 187.707031 C 222.652344 191.484375 220.601562 191.566406 217.8125 191.742188 C 203.171875 192.6875 170.738281 193.648438 165.191406 193.769531 C 161.640625 193.84375 161.640625 193.84375 152.613281 201.980469 C 150.652344 203.746094 149.464844 204.546875 147.859375 201.761719 C 145.785156 198.164062 142.5625 195.570312 138.980469 193.714844 C 135.171875 191.742188 133.328125 188.652344 132.519531 184.773438 C 130.773438 176.746094 126.632812 163.792969 116.039062 167.9375 C 97.765625 174.003906 105.839844 193.734375 87.695312 202.585938 C 85.179688 204.871094 84.078125 208.273438 81.597656 203.484375 C 77.347656 195.652344 72.324219 194.902344 66.253906 201.257812 C 62.550781 205.132812 58.738281 208.675781 53.925781 211.1875 C 49.96875 213.253906 47.917969 217.003906 48.882812 221.324219 C 53.050781 239.007812 26.039062 259.527344 63.046875 260.492188 C 62.902344 260.480469 63.878906 260.402344 64.828125 260.519531 C 66.339844 260.703125 68.402344 259.398438 69.160156 261.8125 C 69.957031 264.355469 68.4375 265.847656 66.425781 266.910156 C 56.132812 271.039062 44.269531 267.332031 40.601562 281.394531 C 39.765625 284.402344 38.007812 285.757812 34.917969 286.46875 C 24.753906 288.796875 15.007812 292.539062 5.148438 295.882812 C 0.550781 296.957031 2.65625 301.023438 6.15625 298.953125 Z M 164.238281 269.386719 C 156.050781 270.101562 153.171875 272.0625 153.4375 260.964844 C 152.832031 251.347656 153.121094 241.132812 161.488281 240.359375 C 168.089844 239.746094 167.628906 250.683594 167.867188 259.941406 C 167.984375 264.765625 169.335938 268.976562 164.238281 269.386719 Z M 192.65625 221.878906 C 209.832031 219.328125 227.300781 219.148438 244.515625 217.453125 C 251.246094 216.738281 254.1875 218.859375 257.132812 224.085938 C 259.167969 227.683594 260.582031 229.789062 254.488281 230.199219 C 237.085938 231.382812 219.964844 232.414062 202.828125 233.03125 C 200.328125 233.117188 183.933594 222.332031 192.65625 221.878906 Z M 176.753906 210.792969 C 176.175781 210.210938 175.332031 209.679688 175.75 208.699219 C 177.613281 207.234375 224.683594 206.238281 240.128906 204.832031 C 245.085938 203.710938 254.175781 214.992188 246.09375 214.3125 C 227.960938 216.011719 209.710938 216.6875 191.671875 219.238281 C 184.1875 221.363281 181.742188 214.921875 176.753906 210.792969 Z M 246.773438 271.582031 C 230.726562 270.152344 214.660156 268.832031 198.582031 267.820312 C 194.121094 267.542969 193.304688 266.085938 193.164062 261.660156 C 192.941406 254.726562 191.789062 245.972656 192.46875 234.667969 C 192.539062 233.46875 192.089844 230.503906 193.0625 231.554688 C 195.628906 234.316406 199.285156 236.261719 201.746094 236.136719 C 217.097656 235.339844 227.695312 235.03125 241.640625 234.382812 C 247.75 234.097656 249.4375 234.011719 250.0625 237.128906 C 250.292969 238.28125 251.015625 262.828125 251.175781 267.488281 C 251.285156 270.761719 250.246094 271.890625 246.773438 271.582031 Z M 254.613281 233.804688 C 257.351562 233.390625 258.316406 238.421875 255.609375 238.457031 C 253.011719 238.925781 252.480469 234.269531 254.613281 233.804688 Z M 310.570312 262.210938 C 327.304688 256.558594 330.011719 273.929688 342.875 277.867188 C 345.234375 278.511719 349.339844 282.296875 348.027344 284.777344 C 321.417969 280.023438 292.824219 273.023438 264.757812 273.101562 C 258.398438 273.601562 255.90625 272.175781 254.988281 269.488281 C 253.921875 266.367188 253.65625 243.160156 254.03125 242.585938 C 254.582031 241.761719 255.664062 241.570312 257.230469 241.90625 C 273.597656 243.3125 267.703125 254.578125 282.179688 252.929688 C 298.386719 250.128906 296.527344 266.835938 310.570312 262.210938 Z M 287.59375 248.664062 C 288.441406 245.214844 298.722656 251.253906 299.34375 252.839844 C 298.90625 256.144531 296.136719 250.855469 288.492188 250.070312 C 287.882812 249.929688 287.339844 249.445312 287.59375 248.664062 Z M 295.480469 195.464844 C 298.574219 188.664062 308.246094 180.507812 313.820312 189.460938 C 319.449219 199.042969 317.535156 208.40625 327.085938 217.164062 C 330.070312 220.210938 332.097656 224.171875 332.4375 228.503906 C 335.199219 248.859375 290.839844 262.492188 309.125 237.324219 C 310.164062 236.296875 311.746094 235.007812 310.578125 233.585938 C 309.078125 231.253906 305.136719 235.476562 303.957031 236.714844 C 298.164062 243.519531 300.425781 232.476562 295.257812 235.066406 C 290.015625 238.433594 300.582031 243.226562 298.007812 246.5625 C 296.761719 248.222656 293.5 244.484375 290.839844 243.941406 C 281.535156 242.621094 274.457031 240.125 275.167969 229.085938 C 274.605469 224.992188 276.671875 221.140625 280.046875 218.453125 C 287.679688 212.367188 291.328125 203.761719 295.480469 195.464844 Z M 229.96875 180.796875 C 238.34375 174.394531 245.109375 166.5625 251.527344 158.320312 C 253.660156 155.585938 256.554688 153.75 259.785156 153.359375 C 278.03125 155.769531 272.769531 183 288.125 191.820312 C 291.71875 194.429688 292.042969 197.414062 289.746094 201.144531 C 286.632812 206.195312 283.898438 211.386719 279.058594 215.25 C 269.238281 222.261719 268.953125 241.640625 281.800781 245.824219 C 289.226562 246.957031 279.125 255.59375 273.65625 246.675781 C 270.335938 239.652344 258.351562 242.074219 262.375 234.210938 C 267.589844 227.128906 256.101562 224.488281 262.617188 218.71875 C 263.65625 217.207031 273.371094 208.664062 266.757812 210.066406 C 266.199219 210.320312 265.710938 210.804688 265.292969 211.269531 C 257.433594 220.289062 261.671875 208.578125 257.589844 208.628906 C 254.800781 209.0625 257.164062 213.054688 255.667969 214.050781 C 253.609375 215.269531 255.253906 215.175781 241.789062 196.886719 C 237.519531 191.09375 237.300781 191.625 229.527344 191.0625 C 226.472656 190.84375 226.472656 190.886719 225.824219 190.058594 C 223.378906 186.917969 227.140625 182.960938 229.96875 180.796875 Z M 167.84375 196.410156 C 175.066406 196.34375 219.320312 194.09375 227.710938 193.714844 C 231.792969 193.480469 236.808594 193.671875 239.023438 196.882812 C 242.773438 202.296875 242.179688 202.183594 235.691406 202.585938 C 214.09375 203.929688 195.824219 204.519531 175.875 205.1875 C 171.15625 206.296875 159.898438 196.035156 167.84375 196.410156 Z M 157.757812 201.011719 C 159.660156 199.195312 160.785156 198.648438 162.921875 200.726562 C 172.507812 210.058594 179.964844 218.222656 187.734375 226.378906 C 190.128906 228.890625 190.109375 228.375 190.128906 230.332031 C 190.207031 240.539062 190.132812 252.421875 189.761719 262.261719 C 189.613281 266.195312 189.515625 266.738281 186.84375 266.894531 C 181.296875 267.210938 175.816406 267.625 170.433594 267.992188 C 170.433594 267.992188 170.015625 255.128906 169.414062 247.359375 C 167.382812 231.90625 152.089844 236.507812 151.585938 250.671875 C 151.238281 276.496094 156.210938 267.285156 134.816406 269.929688 C 131.074219 267.484375 133.589844 236.65625 132.648438 227.875 C 136.015625 218.058594 148.859375 210.757812 157.757812 201.011719 Z M 104.730469 185.144531 C 106.023438 176.933594 119.527344 163.207031 125.261719 174.894531 C 129.78125 182.15625 127.9375 192.488281 137.027344 196.449219 C 141.386719 199.023438 150.132812 205.421875 143.867188 210.574219 C 136.324219 217.425781 129.117188 224.65625 121.28125 231.199219 C 120.5 231.855469 119.015625 232.605469 119.660156 233.574219 C 121.113281 235.59375 122.839844 232.328125 124.144531 231.671875 C 126.0625 230.632812 127.523438 227.171875 129.769531 228.800781 C 131.4375 230.019531 130.328125 233.242188 129.863281 235.492188 C 128.179688 244.105469 113.902344 244.058594 115.207031 234.535156 C 113.882812 226.910156 123.292969 220.3125 119.527344 218.421875 C 112.449219 216.4375 114.535156 233.496094 108.667969 227.933594 C 106.832031 226.425781 104.089844 223.308594 102.378906 225.585938 C 100.480469 228.117188 104.609375 229.390625 106.339844 230.878906 C 108.910156 232.503906 113.617188 238.941406 110.292969 241.398438 C 105.5625 243.480469 104.125 248.988281 99.511719 251.085938 C 97.191406 252.121094 93.957031 253.828125 92.359375 252.101562 C 90.605469 250.199219 94.054688 248.492188 95.179688 246.757812 C 101.433594 237.125 100.363281 228.753906 91.570312 220.902344 C 74.339844 205.292969 102.527344 203.613281 104.730469 185.144531 Z M 68.101562 241.511719 C 67.382812 239.015625 64.015625 240.4375 64.996094 242.632812 C 68.035156 250.671875 73.894531 258.347656 61.226562 257.816406 C 31.148438 257.234375 56.695312 238.640625 51.859375 222.144531 C 50.753906 218.28125 52.726562 214.832031 56.324219 213.164062 C 61.125 210.9375 64.535156 207.28125 68.042969 203.574219 C 80.304688 191.046875 76.242188 213.875 92.164062 225.949219 C 100.09375 233.238281 95.398438 248.203125 84.886719 251.070312 C 77.878906 251.8125 77.890625 257.089844 75.652344 254.671875 C 71.859375 250.320312 81.089844 246.722656 79.9375 242.664062 C 75.078125 238.996094 72.734375 256.136719 68.101562 241.511719 Z M 43.605469 281.441406 C 49.128906 267.40625 62.5625 276.4375 72.394531 265.78125 C 78.421875 259.953125 77.828125 252.125 88.910156 255.054688 C 104.742188 259.351562 106.253906 238.675781 119.769531 244.875 C 126.40625 246.265625 128.964844 239.316406 129.828125 242.582031 C 130.105469 243.640625 130.683594 264.777344 129.644531 268.203125 C 129.125 269.910156 127.960938 271.097656 125.550781 271.230469 C 98.585938 273.261719 72.105469 278.773438 45.625 283.941406 C 42.863281 284.578125 42.71875 283.722656 43.605469 281.441406 Z M 63.121094 260.496094 C 63.085938 260.496094 63.0625 260.496094 63.046875 260.496094 C 63.074219 260.492188 63.097656 260.496094 63.121094 260.496094 Z M 373.578125 306.722656 C 313.046875 310.324219 248.1875 306.011719 186.804688 307.042969 C 125.042969 306.148438 60.480469 308.269531 0.105469 305.746094 C 121.5 302.078125 252.078125 303.519531 373.578125 306.722656 Z M 237.117188 240.886719 C 230.222656 240.933594 230.222656 240.933594 230.289062 247.164062 C 230.351562 253.941406 230.351562 253.941406 235.472656 253.820312 C 242.058594 253.667969 242.792969 253.011719 242.757812 247.332031 C 242.714844 241.421875 242.21875 240.855469 237.117188 240.886719 Z M 236.519531 251.339844 C 233.441406 251.351562 233.117188 251.046875 233.117188 248.546875 C 233.117188 243.808594 233.117188 243.808594 237.152344 243.808594 C 239.839844 243.808594 240.335938 244.371094 240.339844 246.457031 C 240.359375 250.976562 240.375 251.328125 236.519531 251.339844 Z M 209.207031 240.886719 C 202.3125 240.933594 202.3125 240.933594 202.378906 247.164062 C 202.445312 253.941406 202.445312 253.941406 207.566406 253.820312 C 214.152344 253.667969 214.882812 253.011719 214.847656 247.332031 C 214.8125 241.421875 214.316406 240.855469 209.207031 240.886719 Z M 208.609375 251.339844 C 205.53125 251.351562 205.207031 251.046875 205.207031 248.546875 C 205.207031 243.808594 205.207031 243.808594 209.242188 243.808594 C 211.929688 243.808594 212.425781 244.371094 212.433594 246.457031 C 212.449219 250.976562 212.46875 251.328125 208.609375 251.339844 Z M 75.664062 147.820312 C 76.4375 151.949219 82.785156 153.277344 85.53125 150.308594 C 87.328125 159.769531 100.710938 160.1875 104.597656 151.984375 C 109.199219 160.378906 124.027344 157.472656 124.890625 147.855469 C 137.796875 153.21875 149.273438 135.996094 137.984375 128.953125 C 135.253906 127.300781 132.296875 127.878906 129.550781 129.011719 C 128.5625 124.90625 122.929688 122.183594 119.300781 124.800781 C 118.339844 115.226562 104.925781 112.402344 99.519531 119.992188 C 90.324219 109.894531 74.9375 115.5625 74.054688 129.097656 C 55.644531 128.273438 56.105469 157.558594 75.664062 147.820312 Z M 75.953125 132.726562 C 78.296875 133.671875 78.824219 130.371094 77.019531 129.582031 C 77.019531 121.15625 86.253906 114.625 93.847656 119.335938 C 97.894531 120.597656 97.078125 124.058594 99.09375 124.140625 C 99.726562 124.328125 100.519531 124.105469 100.820312 123.484375 C 105.332031 114.785156 117.324219 118.285156 116.609375 128.039062 C 116.589844 130.304688 119.355469 129.808594 120.144531 128.234375 C 120.46875 127.695312 120.894531 127.175781 121.5 126.945312 C 123.566406 126.09375 127.050781 127.980469 126.570312 130.414062 C 125.589844 131.753906 127.351562 133.371094 128.75 132.640625 C 130.820312 131.589844 133.464844 130.210938 135.816406 131.164062 C 139.453125 132.617188 140.605469 136.53125 138.679688 139.863281 C 137.488281 145.304688 129.507812 147.582031 125.253906 144.519531 C 124.078125 143.414062 121.621094 144.605469 122 146.21875 C 122.761719 152.886719 113.304688 156.308594 108.644531 152.351562 C 107.152344 151.082031 106.3125 149.25 106.449219 147.289062 C 106.523438 145.6875 104.054688 145.261719 103.605469 146.792969 C 100.785156 158.710938 86.128906 157.035156 88.828125 145.742188 C 89.335938 143.609375 86.402344 142.96875 84.671875 145.988281 C 84.015625 147.136719 83.800781 148.625 82.296875 148.929688 C 80.09375 149.296875 77.746094 147.910156 78.550781 145.453125 C 78.953125 143.839844 76.789062 142.894531 75.863281 144.265625 C 58.605469 155.609375 60.773438 127.523438 75.953125 132.726562 Z M 153.898438 104.859375 C 157.984375 115.722656 175.296875 111.675781 180.269531 103.496094 C 183.265625 113.378906 202.070312 113.839844 205.125 103.796875 C 214.429688 110.039062 227.972656 99.421875 223.820312 88.859375 C 222.808594 86.214844 220.730469 83.855469 217.867188 83.425781 C 219.953125 71.0625 202.226562 64.671875 195.503906 74.964844 C 189.152344 66.105469 174.492188 67.554688 170.050781 77.53125 C 167.6875 75.757812 163.945312 76.082031 162.117188 78.46875 C 154.332031 65.910156 137.199219 78.574219 143.460938 90.570312 C 129.84375 96.988281 142.710938 113.417969 153.898438 104.859375 Z M 141.101562 96.230469 C 142.449219 92.976562 145.195312 93.84375 147.042969 92.242188 C 148.242188 91.699219 148.019531 89.484375 146.382812 89.414062 C 141.871094 83.183594 149.804688 72.953125 156.933594 77.210938 C 160.167969 78.480469 159.308594 82.875 162.117188 83.507812 C 162.976562 83.507812 163.523438 82.828125 163.59375 82.03125 C 163.84375 79.089844 168 78.351562 169.285156 80.996094 C 169.910156 82.132812 171.632812 81.835938 171.984375 80.644531 C 173.945312 73.378906 183 69.53125 189.480469 73.542969 C 192.066406 74.363281 193.511719 78.632812 195.398438 78.660156 C 198.101562 79.761719 198.363281 70.347656 208.910156 73.222656 C 215.03125 75.742188 214.878906 79.792969 214.859375 82.574219 C 214.847656 84.050781 216.542969 86.277344 217.167969 86.300781 C 221.332031 86.910156 222.296875 92.527344 221.0625 95.898438 C 219.160156 101.648438 211.136719 104.902344 206.183594 100.957031 C 205.628906 100.488281 202.480469 101.140625 202.425781 102.214844 C 201.222656 111.042969 181.492188 109.792969 183.171875 100.28125 C 183.648438 98.769531 179.046875 97.570312 178.488281 99.597656 C 176.183594 107.882812 158.148438 113.117188 156.300781 102.609375 C 155.132812 98.332031 150.140625 105.203125 147.003906 104.253906 C 142.851562 104.53125 139.210938 100.1875 141.101562 96.230469 Z M 276.417969 122.585938 C 276.390625 122.59375 276.335938 122.570312 276.308594 122.546875 C 276.347656 122.570312 276.382812 122.574219 276.417969 122.585938 Z M 238.707031 143.3125 C 240.507812 146.457031 245.859375 147.847656 247.925781 144.289062 C 254.007812 152.378906 266.152344 148.652344 270.003906 140.28125 C 275.097656 147.800781 289.148438 149.375 294.664062 141.410156 C 308.28125 148.320312 320.796875 134.371094 309.214844 123.417969 C 306.980469 121.789062 304.0625 121.105469 301.347656 121.648438 C 303.773438 102.921875 276.261719 100.972656 276.78125 119.628906 C 275.015625 119.214844 273.152344 120.003906 271.929688 121.28125 C 269.253906 114.15625 259.261719 113.507812 253.960938 118.363281 C 248.984375 106.601562 228.777344 113.101562 226.988281 124.070312 C 212.96875 122.976562 217.410156 153.078125 238.707031 143.3125 Z M 227.289062 127.496094 C 228.742188 128.824219 230.027344 127.015625 229.863281 125.632812 C 229.816406 116.078125 249.773438 109.785156 251.894531 121.328125 C 252.472656 125.828125 253.402344 124.53125 254.9375 121.707031 C 258.464844 116.679688 267.847656 116.90625 269.484375 123.980469 C 270.082031 126.550781 273.671875 123.773438 273.878906 123.484375 C 273.84375 123.53125 273.808594 123.574219 273.773438 123.621094 C 274.324219 122.882812 275.355469 122.230469 276.300781 122.550781 C 276.195312 122.472656 276.382812 122.582031 276.429688 122.585938 C 276.425781 122.585938 276.417969 122.585938 276.414062 122.585938 C 277.074219 123.035156 277.472656 123.949219 278.480469 123.808594 C 283.105469 123.171875 275.050781 115.480469 284.734375 110.390625 C 292.941406 106.554688 299.96875 114.167969 298.332031 122.375 C 298.261719 123.089844 300.4375 124.960938 301.285156 124.699219 C 307.96875 122.679688 312.886719 130.875 309.699219 136.46875 C 306.820312 142.085938 299.652344 139.675781 295.050781 139.070312 C 292.449219 136.394531 290.910156 145.214844 282.320312 143.632812 C 270.003906 142.523438 273.460938 136.757812 269.4375 136.828125 C 267.269531 137.316406 267.933594 142.667969 259.828125 145.492188 C 256.527344 147.097656 251.445312 144.980469 250.027344 141.722656 C 249.878906 140.945312 247.738281 139.96875 246.707031 141.027344 C 245.957031 141.800781 245.46875 143.207031 244.417969 143.4375 C 243.230469 143.597656 240.867188 142.367188 241.0625 140.804688 C 241.246094 139.308594 239.863281 138.84375 238.296875 140.136719 C 219.207031 149.988281 218.640625 123.199219 227.289062 127.496094 Z M 227.289062 127.496094 " fill-opacity="1" fill-rule="nonzero"></path>
</svg>