<svg xmlns="http://www.w3.org/2000/svg"
    xmlns:xlink="http://www.w3.org/1999/xlink" width="500" viewBox="0 0 375 374.999991" height="500" preserveAspectRatio="xMidYMid meet">
    <defs>
        <clipPath id="d9dde36e17">
            <path d="M 17.25 0 L 357.75 0 C 362.324219 0 366.710938 1.816406 369.949219 5.050781 C 373.183594 8.289062 375 12.675781 375 17.25 L 375 357.75 C 375 362.324219 373.183594 366.710938 369.949219 369.949219 C 366.710938 373.183594 362.324219 375 357.75 375 L 17.25 375 C 12.675781 375 8.289062 373.183594 5.050781 369.949219 C 1.816406 366.710938 0 362.324219 0 357.75 L 0 17.25 C 0 12.675781 1.816406 8.289062 5.050781 5.050781 C 8.289062 1.816406 12.675781 0 17.25 0 Z M 17.25 0 " clip-rule="nonzero"></path>
        </clipPath>
        <clipPath id="da65198cb1">
            <path d="M 27.46875 27.46875 L 337.21875 27.46875 L 337.21875 337.21875 L 27.46875 337.21875 Z M 27.46875 27.46875 " clip-rule="nonzero"></path>
        </clipPath>
    </defs>
    <rect x="-37.5" width="450" fill="#ffffff" y="-37.499999" height="449.999989" fill-opacity="1"></rect>
    <rect x="-37.5" width="450" fill="#ebebeb" y="-37.499999" height="449.999989" fill-opacity="1"></rect>
    <g clip-path="url(#d9dde36e17)">
        <rect x="-37.5" width="450" fill="#d3edea" y="-37.499999" height="449.999989" fill-opacity="1"></rect>
    </g>
    <g clip-path="url(#da65198cb1)">
        <path fill="#007782" d="M 333.613281 329.738281 L 326.574219 329.738281 L 326.574219 83.175781 C 326.574219 81.875 325.921875 80.664062 324.835938 79.945312 C 323.75 79.222656 322.378906 79.101562 321.179688 79.609375 L 265.945312 103.09375 L 265.945312 68.644531 C 265.945312 66.5 264.210938 64.769531 262.070312 64.769531 L 225.5625 64.769531 L 225.5625 31.34375 C 225.5625 29.203125 223.828125 27.46875 221.683594 27.46875 C 219.542969 27.46875 217.808594 29.203125 217.808594 31.34375 L 217.808594 64.769531 L 180.042969 64.769531 C 177.898438 64.769531 176.167969 66.5 176.167969 68.644531 L 176.167969 152.203125 L 159.582031 152.203125 L 159.582031 141.410156 C 159.582031 139.269531 157.851562 137.535156 155.707031 137.535156 L 45.761719 137.535156 C 43.621094 137.535156 41.886719 139.269531 41.886719 141.410156 L 41.886719 245.398438 C 39.929688 245.59375 38.382812 247.1875 38.382812 249.199219 L 38.382812 329.738281 L 31.34375 329.738281 C 29.203125 329.738281 27.46875 331.472656 27.46875 333.613281 C 27.46875 335.753906 29.203125 337.488281 31.34375 337.488281 L 333.613281 337.488281 C 335.753906 337.488281 337.488281 335.753906 337.488281 333.613281 C 337.488281 331.472656 335.753906 329.738281 333.613281 329.738281 Z M 318.824219 329.738281 L 222.324219 329.738281 L 222.324219 130.058594 L 318.824219 89.035156 Z M 258.195312 72.519531 L 258.195312 102.066406 L 183.917969 102.066406 L 183.917969 72.519531 Z M 183.917969 109.816406 L 250.128906 109.816406 L 216.933594 123.929688 C 215.5 124.535156 214.574219 125.941406 214.574219 127.496094 L 214.574219 152.203125 L 183.917969 152.203125 Z M 214.574219 159.953125 L 214.574219 329.738281 L 163.085938 329.738281 L 163.085938 249.199219 C 163.085938 247.1875 161.542969 245.59375 159.582031 245.398438 L 159.582031 159.953125 Z M 151.832031 145.285156 L 151.832031 245.324219 L 49.636719 245.324219 L 49.636719 145.285156 Z M 46.132812 253.074219 L 155.335938 253.074219 L 155.335938 329.738281 L 127.113281 329.738281 L 127.113281 290.800781 C 127.113281 288.660156 125.378906 286.925781 123.238281 286.925781 L 78.234375 286.925781 C 76.089844 286.925781 74.359375 288.660156 74.359375 290.800781 L 74.359375 329.738281 L 46.132812 329.738281 Z M 119.363281 329.738281 L 82.109375 329.738281 L 82.109375 294.675781 L 119.363281 294.675781 Z M 119.363281 329.738281 " fill-opacity="1" fill-rule="nonzero"></path>
    </g>
    <path fill="#007782" d="M 73.972656 172.953125 L 127.9375 172.953125 C 130.078125 172.953125 131.8125 171.21875 131.8125 169.078125 C 131.8125 166.9375 130.078125 165.203125 127.9375 165.203125 L 73.972656 165.203125 C 71.832031 165.203125 70.097656 166.9375 70.097656 169.078125 C 70.097656 171.21875 71.832031 172.953125 73.972656 172.953125 Z M 73.972656 172.953125 " fill-opacity="1" fill-rule="nonzero"></path>
    <path fill="#007782" d="M 73.972656 199.917969 L 127.9375 199.917969 C 130.078125 199.917969 131.8125 198.183594 131.8125 196.042969 C 131.8125 193.898438 130.078125 192.167969 127.9375 192.167969 L 73.972656 192.167969 C 71.832031 192.167969 70.097656 193.898438 70.097656 196.042969 C 70.097656 198.183594 71.832031 199.917969 73.972656 199.917969 Z M 73.972656 199.917969 " fill-opacity="1" fill-rule="nonzero"></path>
    <path fill="#007782" d="M 73.972656 226.886719 L 127.9375 226.886719 C 130.078125 226.886719 131.8125 225.152344 131.8125 223.011719 C 131.8125 220.867188 130.078125 219.136719 127.9375 219.136719 L 73.972656 219.136719 C 71.832031 219.136719 70.097656 220.867188 70.097656 223.011719 C 70.097656 225.152344 71.832031 226.886719 73.972656 226.886719 Z M 73.972656 226.886719 " fill-opacity="1" fill-rule="nonzero"></path>
    <path fill="#007782" d="M 242.859375 215.023438 L 298.292969 215.023438 C 300.433594 215.023438 302.167969 213.292969 302.167969 211.148438 C 302.167969 209.007812 300.433594 207.273438 298.292969 207.273438 L 242.859375 207.273438 C 240.71875 207.273438 238.984375 209.007812 238.984375 211.148438 C 238.984375 213.292969 240.71875 215.023438 242.859375 215.023438 Z M 242.859375 215.023438 " fill-opacity="1" fill-rule="nonzero"></path>
    <path fill="#007782" d="M 178.363281 196.441406 C 180.503906 196.441406 182.238281 194.707031 182.238281 192.5625 L 182.238281 182.480469 C 182.238281 180.335938 180.503906 178.605469 178.363281 178.605469 C 176.21875 178.605469 174.484375 180.335938 174.484375 182.480469 L 174.484375 192.5625 C 174.484375 194.707031 176.21875 196.441406 178.363281 196.441406 Z M 178.363281 196.441406 " fill-opacity="1" fill-rule="nonzero"></path>
    <path fill="#007782" d="M 196.925781 196.441406 C 199.066406 196.441406 200.800781 194.707031 200.800781 192.5625 L 200.800781 182.480469 C 200.800781 180.335938 199.066406 178.605469 196.925781 178.605469 C 194.78125 178.605469 193.046875 180.335938 193.046875 182.480469 L 193.046875 192.5625 C 193.046875 194.707031 194.78125 196.441406 196.925781 196.441406 Z M 196.925781 196.441406 " fill-opacity="1" fill-rule="nonzero"></path>
    <path fill="#007782" d="M 178.363281 225.113281 C 180.503906 225.113281 182.238281 223.382812 182.238281 221.238281 L 182.238281 211.148438 C 182.238281 209.007812 180.503906 207.273438 178.363281 207.273438 C 176.21875 207.273438 174.484375 209.007812 174.484375 211.148438 L 174.484375 221.238281 C 174.484375 223.382812 176.21875 225.113281 178.363281 225.113281 Z M 178.363281 225.113281 " fill-opacity="1" fill-rule="nonzero"></path>
    <path fill="#007782" d="M 196.925781 225.113281 C 199.066406 225.113281 200.800781 223.382812 200.800781 221.238281 L 200.800781 211.148438 C 200.800781 209.007812 199.066406 207.273438 196.925781 207.273438 C 194.78125 207.273438 193.046875 209.007812 193.046875 211.148438 L 193.046875 221.238281 C 193.046875 223.382812 194.78125 225.113281 196.925781 225.113281 Z M 196.925781 225.113281 " fill-opacity="1" fill-rule="nonzero"></path>
    <path fill="#007782" d="M 178.363281 253.785156 C 180.503906 253.785156 182.238281 252.050781 182.238281 249.910156 L 182.238281 239.824219 C 182.238281 237.683594 180.503906 235.949219 178.363281 235.949219 C 176.21875 235.949219 174.484375 237.683594 174.484375 239.824219 L 174.484375 249.910156 C 174.484375 252.050781 176.21875 253.785156 178.363281 253.785156 Z M 178.363281 253.785156 " fill-opacity="1" fill-rule="nonzero"></path>
    <path fill="#007782" d="M 196.925781 253.785156 C 199.066406 253.785156 200.800781 252.050781 200.800781 249.910156 L 200.800781 239.824219 C 200.800781 237.683594 199.066406 235.949219 196.925781 235.949219 C 194.78125 235.949219 193.046875 237.683594 193.046875 239.824219 L 193.046875 249.910156 C 193.046875 252.050781 194.78125 253.785156 196.925781 253.785156 Z M 196.925781 253.785156 " fill-opacity="1" fill-rule="nonzero"></path>
    <path fill="#007782" d="M 178.363281 282.460938 C 180.503906 282.460938 182.238281 280.726562 182.238281 278.585938 L 182.238281 268.5 C 182.238281 266.355469 180.503906 264.625 178.363281 264.625 C 176.21875 264.625 174.484375 266.355469 174.484375 268.5 L 174.484375 278.585938 C 174.484375 280.726562 176.21875 282.460938 178.363281 282.460938 Z M 178.363281 282.460938 " fill-opacity="1" fill-rule="nonzero"></path>
    <path fill="#007782" d="M 196.925781 282.460938 C 199.066406 282.460938 200.800781 280.726562 200.800781 278.585938 L 200.800781 268.5 C 200.800781 266.355469 199.066406 264.625 196.925781 264.625 C 194.78125 264.625 193.046875 266.355469 193.046875 268.5 L 193.046875 278.585938 C 193.046875 280.726562 194.78125 282.460938 196.925781 282.460938 Z M 196.925781 282.460938 " fill-opacity="1" fill-rule="nonzero"></path>
    <path fill="#007782" d="M 178.363281 311.132812 C 180.503906 311.132812 182.238281 309.402344 182.238281 307.257812 L 182.238281 297.167969 C 182.238281 295.027344 180.503906 293.292969 178.363281 293.292969 C 176.21875 293.292969 174.484375 295.027344 174.484375 297.167969 L 174.484375 307.257812 C 174.484375 309.402344 176.21875 311.132812 178.363281 311.132812 Z M 178.363281 311.132812 " fill-opacity="1" fill-rule="nonzero"></path>
    <path fill="#007782" d="M 196.925781 311.132812 C 199.066406 311.132812 200.800781 309.402344 200.800781 307.257812 L 200.800781 297.167969 C 200.800781 295.027344 199.066406 293.292969 196.925781 293.292969 C 194.78125 293.292969 193.046875 295.027344 193.046875 297.167969 L 193.046875 307.257812 C 193.046875 309.402344 194.78125 311.132812 196.925781 311.132812 Z M 196.925781 311.132812 " fill-opacity="1" fill-rule="nonzero"></path>
    <path fill="#007782" d="M 242.859375 238.277344 L 298.292969 238.277344 C 300.433594 238.277344 302.167969 236.542969 302.167969 234.402344 C 302.167969 232.257812 300.433594 230.527344 298.292969 230.527344 L 242.859375 230.527344 C 240.71875 230.527344 238.984375 232.257812 238.984375 234.402344 C 238.984375 236.542969 240.71875 238.277344 242.859375 238.277344 Z M 242.859375 238.277344 " fill-opacity="1" fill-rule="nonzero"></path>
    <path fill="#007782" d="M 242.859375 261.527344 L 298.292969 261.527344 C 300.433594 261.527344 302.167969 259.792969 302.167969 257.652344 C 302.167969 255.511719 300.433594 253.777344 298.292969 253.777344 L 242.859375 253.777344 C 240.71875 253.777344 238.984375 255.511719 238.984375 257.652344 C 238.984375 259.792969 240.71875 261.527344 242.859375 261.527344 Z M 242.859375 261.527344 " fill-opacity="1" fill-rule="nonzero"></path>
    <path fill="#007782" d="M 242.859375 168.144531 L 298.292969 168.144531 C 300.433594 168.144531 302.167969 166.410156 302.167969 164.269531 C 302.167969 162.125 300.433594 160.394531 298.292969 160.394531 L 242.859375 160.394531 C 240.71875 160.394531 238.984375 162.125 238.984375 164.269531 C 238.984375 166.410156 240.71875 168.144531 242.859375 168.144531 Z M 242.859375 168.144531 " fill-opacity="1" fill-rule="nonzero"></path>
    <path fill="#007782" d="M 242.859375 191.394531 L 298.292969 191.394531 C 300.433594 191.394531 302.167969 189.660156 302.167969 187.519531 C 302.167969 185.378906 300.433594 183.644531 298.292969 183.644531 L 242.859375 183.644531 C 240.71875 183.644531 238.984375 185.378906 238.984375 187.519531 C 238.984375 189.660156 240.71875 191.394531 242.859375 191.394531 Z M 242.859375 191.394531 " fill-opacity="1" fill-rule="nonzero"></path>
    <path fill="#007782" d="M 242.859375 284.78125 L 298.292969 284.78125 C 300.433594 284.78125 302.167969 283.046875 302.167969 280.902344 C 302.167969 278.761719 300.433594 277.027344 298.292969 277.027344 L 242.859375 277.027344 C 240.71875 277.027344 238.984375 278.761719 238.984375 280.902344 C 238.984375 283.046875 240.71875 284.78125 242.859375 284.78125 Z M 242.859375 284.78125 " fill-opacity="1" fill-rule="nonzero"></path>
    <path fill="#007782" d="M 242.859375 308.03125 L 298.292969 308.03125 C 300.433594 308.03125 302.167969 306.296875 302.167969 304.15625 C 302.167969 302.011719 300.433594 300.28125 298.292969 300.28125 L 242.859375 300.28125 C 240.71875 300.28125 238.984375 302.011719 238.984375 304.15625 C 238.984375 306.296875 240.71875 308.03125 242.859375 308.03125 Z M 242.859375 308.03125 " fill-opacity="1" fill-rule="nonzero"></path>
</svg>