<svg xmlns="http://www.w3.org/2000/svg"
    xmlns:xlink="http://www.w3.org/1999/xlink" width="500" viewBox="0 0 375 374.999991" height="500" preserveAspectRatio="xMidYMid meet">
    <defs>
        <clipPath id="af31dc09fd">
            <path d="M 7.898438 0 L 375 0 L 375 365.25 L 7.898438 365.25 Z M 7.898438 0 " clip-rule="nonzero"></path>
        </clipPath>
        <clipPath id="96c70f8730">
            <path d="M 25.148438 0 L 357.75 0 C 362.324219 0 366.710938 1.816406 369.949219 5.050781 C 373.183594 8.289062 375 12.675781 375 17.25 L 375 348 C 375 352.574219 373.183594 356.964844 369.949219 360.199219 C 366.710938 363.433594 362.324219 365.25 357.75 365.25 L 25.148438 365.25 C 20.574219 365.25 16.183594 363.433594 12.949219 360.199219 C 9.714844 356.964844 7.898438 352.574219 7.898438 348 L 7.898438 17.25 C 7.898438 12.675781 9.714844 8.289062 12.949219 5.050781 C 16.183594 1.816406 20.574219 0 25.148438 0 Z M 25.148438 0 " clip-rule="nonzero"></path>
        </clipPath>
        <clipPath id="394f9a8f32">
            <path d="M 184 37.5 L 187 37.5 L 187 63 L 184 63 Z M 184 37.5 " clip-rule="nonzero"></path>
        </clipPath>
        <clipPath id="5b81041edb">
            <path d="M 37.5 346 L 163 346 L 163 348.75 L 37.5 348.75 Z M 37.5 346 " clip-rule="nonzero"></path>
        </clipPath>
        <clipPath id="a9c212c8ff">
            <path d="M 189 346 L 327 346 L 327 348.75 L 189 348.75 Z M 189 346 " clip-rule="nonzero"></path>
        </clipPath>
    </defs>
    <rect x="-37.5" width="450" fill="#ffffff" y="-37.499999" height="449.999989" fill-opacity="1"></rect>
    <rect x="-37.5" width="450" fill="#ebebeb" y="-37.499999" height="449.999989" fill-opacity="1"></rect>
    <g clip-path="url(#af31dc09fd)">
        <g clip-path="url(#96c70f8730)">
            <path fill="#d3edea" d="M 7.898438 0 L 375 0 L 375 365.25 L 7.898438 365.25 Z M 7.898438 0 " fill-opacity="1" fill-rule="nonzero"></path>
        </g>
    </g>
    <path fill="#0d5959" d="M 173.871094 81.992188 L 197.675781 81.992188 L 197.675781 75.78125 C 197.675781 69.214844 192.335938 63.875 185.773438 63.875 C 179.210938 63.875 173.871094 69.214844 173.871094 75.78125 Z M 199.871094 84.191406 L 171.671875 84.191406 L 171.671875 75.78125 C 171.671875 68.003906 178 61.675781 185.773438 61.675781 C 193.546875 61.675781 199.871094 68.003906 199.871094 75.78125 L 199.871094 84.191406 " fill-opacity="1" fill-rule="nonzero"></path>
    <path fill="#0d5959" d="M 166.554688 86.386719 L 204.992188 86.386719 L 204.992188 84.191406 L 166.554688 84.191406 Z M 207.1875 88.585938 L 164.359375 88.585938 L 164.359375 81.992188 L 207.1875 81.992188 L 207.1875 88.585938 " fill-opacity="1" fill-rule="nonzero"></path>
    <path fill="#0d5959" d="M 166.554688 103.605469 L 204.992188 103.605469 L 204.992188 101.410156 L 166.554688 101.410156 Z M 207.1875 105.804688 L 164.359375 105.804688 L 164.359375 99.210938 L 207.1875 99.210938 L 207.1875 105.804688 " fill-opacity="1" fill-rule="nonzero"></path>
    <path fill="#0d5959" d="M 166.554688 100.308594 L 164.359375 100.308594 L 164.359375 87.488281 L 166.554688 87.488281 L 166.554688 100.308594 " fill-opacity="1" fill-rule="nonzero"></path>
    <path fill="#0d5959" d="M 178.179688 100.308594 L 175.984375 100.308594 L 175.984375 87.488281 L 178.179688 87.488281 L 178.179688 100.308594 " fill-opacity="1" fill-rule="nonzero"></path>
    <path fill="#0d5959" d="M 195.421875 100.308594 L 193.222656 100.308594 L 193.222656 87.488281 L 195.421875 87.488281 L 195.421875 100.308594 " fill-opacity="1" fill-rule="nonzero"></path>
    <path fill="#0d5959" d="M 207.1875 100.308594 L 204.992188 100.308594 L 204.992188 87.488281 L 207.1875 87.488281 L 207.1875 100.308594 " fill-opacity="1" fill-rule="nonzero"></path>
    <path fill="#0d5959" d="M 166.554688 122.773438 L 164.359375 122.773438 L 164.359375 104.703125 L 166.554688 104.703125 L 166.554688 122.773438 " fill-opacity="1" fill-rule="nonzero"></path>
    <path fill="#0d5959" d="M 178.179688 122.773438 L 175.984375 122.773438 L 175.984375 104.703125 L 178.179688 104.703125 L 178.179688 122.773438 " fill-opacity="1" fill-rule="nonzero"></path>
    <path fill="#0d5959" d="M 195.421875 122.773438 L 193.222656 122.773438 L 193.222656 104.703125 L 195.421875 104.703125 L 195.421875 122.773438 " fill-opacity="1" fill-rule="nonzero"></path>
    <path fill="#0d5959" d="M 207.1875 122.773438 L 204.992188 122.773438 L 204.992188 104.703125 L 207.1875 104.703125 L 207.1875 122.773438 " fill-opacity="1" fill-rule="nonzero"></path>
    <path fill="#0d5959" d="M 160.414062 135.394531 L 211.128906 135.394531 L 208.09375 123.871094 L 163.453125 123.871094 Z M 213.984375 137.589844 L 157.5625 137.589844 L 161.761719 121.675781 L 209.785156 121.675781 L 213.984375 137.589844 " fill-opacity="1" fill-rule="nonzero"></path>
    <path fill="#0d5959" d="M 170.933594 135.394531 L 200.613281 135.394531 L 198.996094 129.257812 L 172.550781 129.257812 Z M 203.464844 137.589844 L 168.082031 137.589844 L 170.859375 127.0625 L 200.6875 127.0625 L 203.464844 137.589844 " fill-opacity="1" fill-rule="nonzero"></path>
    <path fill="#0d5959" d="M 183.027344 121.675781 L 188.515625 121.675781 L 188.515625 114.816406 C 188.515625 113.300781 187.285156 112.070312 185.773438 112.070312 C 184.257812 112.070312 183.027344 113.300781 183.027344 114.816406 Z M 190.714844 123.871094 L 180.828125 123.871094 L 180.828125 114.816406 C 180.828125 112.089844 183.046875 109.871094 185.773438 109.871094 C 188.5 109.871094 190.714844 112.089844 190.714844 114.816406 L 190.714844 123.871094 " fill-opacity="1" fill-rule="nonzero"></path>
    <path fill="#0d5959" d="M 157.496094 138.550781 L 214.050781 138.550781 L 214.050781 137.589844 L 157.496094 137.589844 Z M 216.25 140.75 L 155.296875 140.75 L 155.296875 135.394531 L 216.25 135.394531 L 216.25 140.75 " fill-opacity="1" fill-rule="nonzero"></path>
    <path fill="#0d5959" d="M 157.496094 159.828125 L 214.050781 159.828125 L 214.050781 158.867188 L 157.496094 158.867188 Z M 216.25 162.027344 L 155.296875 162.027344 L 155.296875 156.671875 L 216.25 156.671875 L 216.25 162.027344 " fill-opacity="1" fill-rule="nonzero"></path>
    <path fill="#0d5959" d="M 160.089844 156.671875 L 211.457031 156.671875 L 211.457031 140.75 L 160.089844 140.75 Z M 213.65625 158.867188 L 157.890625 158.867188 L 157.890625 138.550781 L 213.65625 138.550781 L 213.65625 158.867188 " fill-opacity="1" fill-rule="nonzero"></path>
    <path fill="#0d5959" d="M 170.605469 156.671875 L 200.941406 156.671875 L 200.941406 145.691406 L 170.605469 145.691406 Z M 203.136719 158.867188 L 168.40625 158.867188 L 168.40625 143.492188 L 203.136719 143.492188 L 203.136719 158.867188 " fill-opacity="1" fill-rule="nonzero"></path>
    <path fill="#0d5959" d="M 160.089844 336.777344 L 211.457031 336.777344 L 211.457031 162.027344 L 160.089844 162.027344 Z M 213.65625 338.972656 L 157.890625 338.972656 L 157.890625 159.828125 L 213.65625 159.828125 L 213.65625 338.972656 " fill-opacity="1" fill-rule="nonzero"></path>
    <path fill="#0d5959" d="M 170.605469 336.777344 L 200.941406 336.777344 L 200.941406 170.949219 L 170.605469 170.949219 Z M 203.136719 338.972656 L 168.40625 338.972656 L 168.40625 168.753906 L 203.136719 168.753906 L 203.136719 338.972656 " fill-opacity="1" fill-rule="nonzero"></path>
    <path fill="#0d5959" d="M 202.039062 194.339844 L 169.503906 194.339844 L 169.503906 192.140625 L 202.039062 192.140625 L 202.039062 194.339844 " fill-opacity="1" fill-rule="nonzero"></path>
    <path fill="#0d5959" d="M 173.871094 186.140625 L 175.984375 186.140625 L 175.984375 175.707031 L 173.871094 175.707031 Z M 178.179688 188.335938 L 171.671875 188.335938 L 171.671875 173.511719 L 178.179688 173.511719 L 178.179688 188.335938 " fill-opacity="1" fill-rule="nonzero"></path>
    <path fill="#0d5959" d="M 184.71875 186.140625 L 186.828125 186.140625 L 186.828125 175.707031 L 184.71875 175.707031 Z M 189.027344 188.335938 L 182.519531 188.335938 L 182.519531 173.511719 L 189.027344 173.511719 L 189.027344 188.335938 " fill-opacity="1" fill-rule="nonzero"></path>
    <path fill="#0d5959" d="M 195.421875 186.140625 L 197.535156 186.140625 L 197.535156 175.707031 L 195.421875 175.707031 Z M 199.730469 188.335938 L 193.222656 188.335938 L 193.222656 173.511719 L 199.730469 173.511719 L 199.730469 188.335938 " fill-opacity="1" fill-rule="nonzero"></path>
    <path fill="#0d5959" d="M 185.773438 215.203125 C 177.382812 215.203125 170.5625 222.027344 170.5625 230.414062 C 170.5625 238.800781 177.382812 245.628906 185.773438 245.628906 C 194.160156 245.628906 200.984375 238.800781 200.984375 230.414062 C 200.984375 222.027344 194.160156 215.203125 185.773438 215.203125 Z M 185.773438 247.824219 C 176.175781 247.824219 168.363281 240.015625 168.363281 230.414062 C 168.363281 220.816406 176.175781 213.003906 185.773438 213.003906 C 195.371094 213.003906 203.183594 220.816406 203.183594 230.414062 C 203.183594 240.015625 195.371094 247.824219 185.773438 247.824219 " fill-opacity="1" fill-rule="nonzero"></path>
    <path fill="#0d5959" d="M 185.773438 219.21875 C 179.597656 219.21875 174.578125 224.242188 174.578125 230.414062 C 174.578125 236.585938 179.597656 241.609375 185.773438 241.609375 C 191.949219 241.609375 196.96875 236.585938 196.96875 230.414062 C 196.96875 224.242188 191.949219 219.21875 185.773438 219.21875 Z M 185.773438 243.808594 C 178.390625 243.808594 172.378906 237.800781 172.378906 230.414062 C 172.378906 223.03125 178.390625 217.023438 185.773438 217.023438 C 193.15625 217.023438 199.164062 223.03125 199.164062 230.414062 C 199.164062 237.800781 193.15625 243.808594 185.773438 243.808594 " fill-opacity="1" fill-rule="nonzero"></path>
    <path fill="#0d5959" d="M 187.265625 230.414062 C 187.265625 231.234375 186.597656 231.90625 185.773438 231.90625 C 184.949219 231.90625 184.28125 231.234375 184.28125 230.414062 C 184.28125 229.589844 184.949219 228.925781 185.773438 228.925781 C 186.597656 228.925781 187.265625 229.589844 187.265625 230.414062 " fill-opacity="1" fill-rule="nonzero"></path>
    <path fill="#0d5959" d="M 189.746094 235.460938 L 184.675781 230.902344 L 184.675781 220.640625 L 186.871094 220.640625 L 186.871094 229.921875 L 191.214844 233.828125 L 189.746094 235.460938 " fill-opacity="1" fill-rule="nonzero"></path>
    <g clip-path="url(#394f9a8f32)">
        <path fill="#0d5959" d="M 186.871094 62.777344 L 184.675781 62.777344 L 184.675781 37.519531 L 186.871094 37.519531 L 186.871094 62.777344 " fill-opacity="1" fill-rule="nonzero"></path>
    </g>
    <path fill="#0d5959" d="M 299.644531 338.972656 L 71.902344 338.972656 L 71.902344 336.777344 L 299.644531 336.777344 L 299.644531 338.972656 " fill-opacity="1" fill-rule="nonzero"></path>
    <g clip-path="url(#5b81041edb)">
        <path fill="#0d5959" d="M 162.871094 348.828125 L 37.625 348.828125 L 37.625 346.628906 L 162.871094 346.628906 L 162.871094 348.828125 " fill-opacity="1" fill-rule="nonzero"></path>
    </g>
    <g clip-path="url(#a9c212c8ff)">
        <path fill="#0d5959" d="M 326.9375 348.828125 L 189.242188 348.828125 L 189.242188 346.628906 L 326.9375 346.628906 L 326.9375 348.828125 " fill-opacity="1" fill-rule="nonzero"></path>
    </g>
</svg>