<svg xmlns="http://www.w3.org/2000/svg" x="0px" y="0px" width="100" height="100" viewBox="0 0 72 72">
<path style="fill:white" d="M 36 12 C 22.745 12 12 22.745 12 36 C 12 49.255 22.745 60 36 60 C 49.255 60 60 49.255 60 36 C 60 22.745 49.255 12 36 12 z M 36 20 C 44.837 20 52 27.163 52 36 C 52 44.837 44.837 52 36 52 C 34.383223 52 32.824611 51.756462 31.353516 51.310547 C 31.8707 50.41924 32.778705 48.643591 33.076172 47.494141 C 33.283172 46.698141 34.136719 43.451172 34.136719 43.451172 C 34.691719 44.509172 36.311156 45.404297 38.035156 45.404297 C 43.166156 45.404297 46.861328 40.686219 46.861328 34.824219 C 46.861328 29.205219 42.277953 25 36.376953 25 C 29.036953 25 25.137672 29.927922 25.138672 35.294922 C 25.138672 37.789922 26.467797 40.895766 28.591797 41.884766 C 28.913797 42.034766 29.086156 41.969203 29.160156 41.658203 C 29.216156 41.422203 29.503812 40.265516 29.632812 39.728516 C 29.673812 39.556516 29.652672 39.408234 29.513672 39.240234 C 28.810672 38.388234 28.248047 36.821375 28.248047 35.359375 C 28.248047 31.607375 31.089688 27.976562 35.929688 27.976562 C 40.108688 27.976563 43.033203 30.823484 43.033203 34.896484 C 43.033203 39.497484 40.7105 42.685547 37.6875 42.685547 C 36.0175 42.685547 34.766969 41.304328 35.167969 39.611328 C 35.647969 37.589328 36.576172 35.406266 36.576172 33.947266 C 36.576172 32.641266 35.876781 31.552734 34.425781 31.552734 C 32.718781 31.552734 31.347656 33.318594 31.347656 35.683594 C 31.347656 37.189594 31.855469 38.207031 31.855469 38.207031 C 31.855469 38.207031 30.170328 45.334109 29.861328 46.662109 C 29.606215 47.759017 29.65775 49.691744 29.726562 50.720703 C 24.008364 48.281016 20 42.610033 20 36 C 20 27.163 27.163 20 36 20 z"></path>
</svg>