<svg xmlns="http://www.w3.org/2000/svg" xmlns:xlink="http://www.w3.org/1999/xlink" width="500" viewBox="0 0 375 374.999991" height="500" preserveAspectRatio="xMidYMid meet"><defs><clipPath id="e80322c485"><path d="M 108.035156 18.75 L 267 18.75 L 267 356.25 L 108.035156 356.25 Z M 108.035156 18.75 " clip-rule="nonzero"></path></clipPath></defs><rect x="-37.5" width="450" fill="#ffffff" y="-37.499999" height="449.999989" fill-opacity="1"></rect><rect x="-37.5" width="450" fill="#f1f9ff" y="-37.499999" height="449.999989" fill-opacity="1"></rect><rect x="-37.5" width="450" fill="#d3edea" y="-37.499999" height="449.999989" fill-opacity="1"></rect><g clip-path="url(#e80322c485)"><path fill="#0d5959" d="M 110.699219 39.40625 L 148.160156 52.378906 C 149.886719 52.976562 149.140625 55.730469 147.402344 55.128906 L 109.941406 42.15625 C 108.21875 41.558594 108.96875 38.808594 110.699219 39.40625 Z M 110.699219 85.800781 L 148.160156 72.828125 C 149.882812 72.234375 149.144531 69.480469 147.402344 70.082031 L 109.941406 83.050781 C 108.21875 83.648438 108.960938 86.402344 110.699219 85.800781 Z M 222.300781 72.828125 L 259.757812 85.800781 C 261.496094 86.402344 262.242188 83.648438 260.519531 83.050781 L 223.058594 70.082031 C 221.320312 69.480469 220.574219 72.234375 222.300781 72.828125 Z M 231.917969 61.863281 C 231.730469 61.863281 231.546875 61.898438 231.375 61.972656 C 231.199219 62.042969 231.046875 62.148438 230.910156 62.28125 C 230.777344 62.414062 230.675781 62.570312 230.601562 62.742188 C 230.53125 62.917969 230.492188 63.101562 230.492188 63.289062 C 230.492188 63.476562 230.53125 63.660156 230.601562 63.835938 C 230.675781 64.007812 230.777344 64.164062 230.910156 64.296875 C 231.046875 64.429688 231.199219 64.535156 231.375 64.605469 C 231.546875 64.679688 231.730469 64.714844 231.917969 64.714844 L 253.347656 64.714844 C 253.539062 64.714844 253.71875 64.679688 253.894531 64.605469 C 254.070312 64.535156 254.222656 64.429688 254.355469 64.296875 C 254.492188 64.164062 254.59375 64.007812 254.667969 63.835938 C 254.738281 63.660156 254.773438 63.476562 254.773438 63.289062 C 254.773438 63.101562 254.738281 62.917969 254.667969 62.742188 C 254.59375 62.570312 254.492188 62.414062 254.355469 62.28125 C 254.222656 62.148438 254.070312 62.042969 253.894531 61.972656 C 253.71875 61.898438 253.539062 61.863281 253.347656 61.863281 Z M 223.054688 55.128906 L 260.519531 42.15625 C 262.242188 41.5625 261.5 38.804688 259.757812 39.40625 L 222.300781 52.378906 C 220.578125 52.976562 221.316406 55.730469 223.058594 55.128906 Z M 264.097656 355.585938 C 263.824219 355.902344 263.476562 356.054688 263.058594 356.039062 L 110.367188 356.039062 C 110.046875 356.050781 109.761719 355.957031 109.507812 355.757812 C 109.257812 355.558594 109.097656 355.300781 109.039062 354.988281 C 108.898438 354.894531 108.78125 354.78125 108.6875 354.640625 C 108.597656 354.5 108.539062 354.347656 108.511719 354.179688 C 108.484375 354.015625 108.492188 353.851562 108.53125 353.691406 C 108.574219 353.527344 108.648438 353.378906 108.753906 353.25 C 110.652344 350.558594 112.789062 348.074219 115.167969 345.792969 C 117.546875 343.515625 120.121094 341.484375 122.890625 339.703125 C 125.660156 337.917969 128.578125 336.417969 131.636719 335.199219 C 134.695312 333.976562 137.84375 333.0625 141.082031 332.449219 C 141.082031 332.417969 141.074219 332.386719 141.082031 332.351562 C 141.453125 329.550781 141.828125 326.75 142.199219 323.945312 C 142.027344 323.691406 141.957031 323.410156 141.992188 323.101562 C 143.03125 309.054688 144.066406 295.007812 145.105469 280.957031 C 146.953125 255.9375 148.800781 230.917969 150.648438 205.902344 C 152.3125 183.375 154.179688 153.042969 155.84375 130.460938 C 151.820312 123.707031 147.796875 116.957031 143.769531 110.203125 C 143.574219 109.96875 143.472656 109.699219 143.46875 109.394531 L 143.46875 109.386719 C 143.46875 109.355469 143.460938 109.328125 143.464844 109.289062 L 143.65625 101.207031 C 143.515625 100.976562 143.453125 100.722656 143.464844 100.453125 L 143.667969 91.902344 C 143.671875 91.582031 143.773438 91.296875 143.964844 91.042969 C 144.15625 90.789062 144.40625 90.617188 144.714844 90.527344 C 149.796875 89.246094 154.929688 88.207031 160.117188 87.410156 L 160.117188 44.527344 C 160.117188 43.589844 159.816406 42.078125 160.425781 41.296875 C 161.125 40.386719 162.613281 39.746094 163.570312 39.113281 L 166.710938 37.035156 L 172.992188 32.882812 L 184.84375 25.042969 L 184.84375 20.175781 C 184.84375 19.984375 184.878906 19.804688 184.949219 19.628906 C 185.023438 19.457031 185.125 19.300781 185.257812 19.167969 C 185.394531 19.035156 185.546875 18.929688 185.722656 18.859375 C 185.898438 18.785156 186.078125 18.75 186.265625 18.75 C 186.457031 18.75 186.636719 18.785156 186.8125 18.859375 C 186.988281 18.929688 187.140625 19.035156 187.273438 19.167969 C 187.410156 19.300781 187.511719 19.457031 187.585938 19.628906 C 187.65625 19.804688 187.691406 19.984375 187.691406 20.175781 L 187.691406 25.074219 L 200.949219 34.386719 L 206.960938 38.609375 C 208.046875 39.367188 209.230469 40.082031 210.257812 40.925781 C 211.171875 41.675781 210.960938 42.726562 210.960938 43.816406 L 210.960938 87.480469 C 216.03125 88.265625 221.058594 89.285156 226.054688 90.53125 C 226.359375 90.621094 226.609375 90.792969 226.800781 91.046875 C 226.996094 91.300781 227.09375 91.589844 227.097656 91.90625 L 227.1875 100.148438 C 227.191406 100.335938 227.160156 100.519531 227.089844 100.695312 C 227.089844 100.710938 227.101562 100.730469 227.101562 100.746094 L 227.1875 108.988281 C 227.1875 109 227.1875 109.007812 227.1875 109.019531 C 227.316406 109.433594 227.289062 109.832031 227.101562 110.222656 L 216.953125 131.429688 C 218.585938 153.910156 220.027344 183.695312 221.667969 205.90625 C 223.089844 225.144531 224.511719 244.382812 225.933594 263.621094 C 226.144531 264.03125 226.175781 264.449219 226.027344 264.882812 C 226.421875 270.242188 226.820312 275.601562 227.214844 280.960938 C 228.253906 295.007812 229.292969 309.058594 230.328125 323.105469 C 230.359375 323.394531 230.296875 323.660156 230.144531 323.90625 C 232.496094 324.492188 234.792969 325.238281 237.035156 326.152344 C 240.203125 327.441406 243.226562 329.011719 246.105469 330.859375 C 248.984375 332.710938 251.667969 334.808594 254.15625 337.15625 C 256.644531 339.507812 258.898438 342.0625 260.910156 344.828125 C 262.921875 347.597656 264.664062 350.523438 266.136719 353.613281 C 266.785156 355.03125 265.085938 356.285156 264.097656 355.585938 Z M 162.808594 104.359375 C 169.976562 103.378906 177.175781 102.878906 184.410156 102.851562 L 184.410156 97.171875 C 177.175781 97.222656 169.972656 97.75 162.808594 98.753906 Z M 187.261719 102.878906 C 194.175781 102.976562 201.054688 103.507812 207.902344 104.476562 L 207.902344 98.722656 C 201.054688 97.765625 194.175781 97.25 187.261719 97.175781 Z M 210.753906 104.910156 C 215.308594 105.636719 219.832031 106.550781 224.324219 107.65625 C 224.304688 105.726562 224.28125 103.800781 224.261719 101.871094 C 219.800781 100.777344 215.296875 99.867188 210.753906 99.144531 Z M 194.699219 44.816406 L 194.699219 85.769531 C 199.183594 86.023438 203.65625 86.457031 208.113281 87.066406 L 208.113281 44.816406 Z M 164.40625 41.96875 L 206.796875 41.96875 L 186.246094 27.53125 Z M 177.664062 44.816406 L 177.664062 85.675781 C 182.390625 85.457031 187.117188 85.445312 191.847656 85.628906 L 191.847656 44.816406 Z M 162.964844 87.015625 C 166.902344 86.480469 170.851562 86.089844 174.8125 85.839844 L 174.8125 44.816406 L 162.964844 44.816406 Z M 146.34375 98.980469 C 151.03125 97.851562 155.761719 96.90625 160.527344 96.191406 C 171.148438 94.59375 181.828125 94.03125 192.558594 94.496094 C 203.289062 94.960938 213.878906 96.449219 224.324219 98.960938 L 224.261719 93.035156 C 220.78125 92.171875 215.878906 91.078125 209.953125 90.171875 C 199.382812 88.574219 188.757812 88.015625 178.078125 88.496094 C 167.402344 88.980469 156.871094 90.492188 146.488281 93.039062 C 146.441406 95.019531 146.390625 97 146.34375 98.980469 Z M 146.351562 107.476562 C 150.847656 106.382812 155.386719 105.464844 159.957031 104.761719 L 159.957031 99.179688 C 155.433594 99.894531 150.945312 100.792969 146.488281 101.878906 Z M 157.9375 128.417969 C 160.183594 127.4375 162.472656 126.578125 164.808594 125.84375 C 167.140625 125.109375 169.507812 124.5 171.910156 124.015625 C 174.308594 123.53125 176.726562 123.171875 179.164062 122.945312 C 181.601562 122.71875 184.042969 122.621094 186.492188 122.652344 C 188.941406 122.683594 191.378906 122.847656 193.808594 123.136719 C 196.242188 123.429688 198.648438 123.847656 201.035156 124.394531 C 203.421875 124.941406 205.769531 125.613281 208.085938 126.410156 C 210.402344 127.207031 212.667969 128.125 214.882812 129.164062 L 223.828125 110.46875 C 219.238281 109.320312 214.605469 108.359375 209.933594 107.617188 C 199.476562 105.972656 188.960938 105.371094 178.386719 105.8125 C 167.8125 106.253906 157.382812 107.722656 147.097656 110.226562 Z M 149.28125 262.9375 C 149.292969 262.9375 149.300781 262.9375 149.3125 262.9375 L 223.027344 262.9375 C 222.660156 257.976562 222.292969 253.015625 221.925781 248.054688 C 220.078125 223.03125 218.230469 198.011719 216.382812 172.996094 C 215.566406 161.910156 214.933594 143.703125 214.132812 131.941406 C 211.289062 130.589844 208.363281 129.453125 205.359375 128.519531 C 201.542969 127.34375 197.652344 126.515625 193.683594 126.035156 C 189.71875 125.554688 185.742188 125.429688 181.757812 125.660156 C 177.769531 125.890625 173.832031 126.46875 169.949219 127.402344 C 166.066406 128.332031 162.296875 129.601562 158.636719 131.207031 C 157.789062 142.933594 156.761719 161.679688 155.925781 173 L 150.378906 248.054688 C 150.015625 253.015625 149.648438 257.972656 149.28125 262.9375 Z M 145.160156 323.082031 C 144.765625 326.046875 144.371094 329.011719 143.976562 331.976562 C 149.722656 331.210938 155.429688 331.457031 161.089844 332.710938 C 166.953125 334.035156 172.414062 336.316406 177.480469 339.550781 C 179.050781 337.886719 180.71875 336.324219 182.484375 334.871094 C 184.25 333.414062 186.101562 332.074219 188.035156 330.851562 C 189.96875 329.628906 191.972656 328.53125 194.046875 327.558594 C 196.117188 326.585938 198.242188 325.746094 200.417969 325.039062 C 202.597656 324.332031 204.808594 323.765625 207.058594 323.335938 C 209.304688 322.90625 211.570312 322.621094 213.855469 322.476562 C 216.140625 322.328125 218.425781 322.328125 220.707031 322.46875 C 222.992188 322.609375 225.257812 322.894531 227.507812 323.320312 C 227.492188 323.25 227.480469 323.179688 227.472656 323.105469 C 226.058594 304 224.648438 284.890625 223.238281 265.785156 L 149.316406 265.785156 C 149.234375 265.78125 149.152344 265.773438 149.074219 265.757812 C 147.679688 284.589844 146.289062 303.421875 144.902344 322.253906 C 145.101562 322.496094 145.191406 322.769531 145.160156 323.082031 Z M 188.332031 353.1875 C 185.191406 349.113281 181.488281 345.640625 177.222656 342.765625 C 177.054688 342.691406 176.902344 342.585938 176.769531 342.457031 C 176.105469 342.015625 175.433594 341.589844 174.746094 341.183594 C 172.203125 339.65625 169.542969 338.378906 166.757812 337.347656 C 163.976562 336.320312 161.121094 335.558594 158.195312 335.0625 C 155.273438 334.570312 152.324219 334.351562 149.359375 334.410156 C 146.394531 334.46875 143.457031 334.800781 140.554688 335.40625 C 137.773438 336.011719 135.070312 336.851562 132.4375 337.929688 C 129.804688 339.007812 127.285156 340.304688 124.878906 341.820312 C 122.472656 343.335938 120.214844 345.046875 118.105469 346.957031 C 115.996094 348.867188 114.070312 350.941406 112.324219 353.1875 Z M 262.738281 353.1875 C 259.652344 347.207031 255.554688 342.027344 250.453125 337.640625 C 247.976562 335.492188 245.316406 333.597656 242.472656 331.960938 C 239.628906 330.324219 236.65625 328.972656 233.550781 327.910156 C 230.445312 326.847656 227.269531 326.089844 224.019531 325.640625 C 220.769531 325.191406 217.507812 325.054688 214.230469 325.234375 C 211 325.445312 207.8125 325.949219 204.675781 326.75 C 201.539062 327.546875 198.5 328.628906 195.5625 329.988281 C 192.625 331.351562 189.835938 332.972656 187.199219 334.847656 C 184.5625 336.726562 182.117188 338.832031 179.871094 341.160156 C 184.539062 344.496094 188.535156 348.503906 191.855469 353.1875 Z M 231.578125 334.300781 C 228.964844 334.300781 228.957031 338.367188 231.578125 338.367188 C 234.199219 338.367188 234.199219 334.300781 231.578125 334.300781 Z M 138.539062 64.714844 C 138.730469 64.714844 138.910156 64.679688 139.085938 64.605469 C 139.261719 64.535156 139.414062 64.429688 139.546875 64.296875 C 139.683594 64.164062 139.785156 64.007812 139.855469 63.835938 C 139.929688 63.660156 139.964844 63.476562 139.964844 63.289062 C 139.964844 63.101562 139.929688 62.917969 139.855469 62.742188 C 139.785156 62.570312 139.683594 62.414062 139.546875 62.28125 C 139.414062 62.148438 139.261719 62.042969 139.085938 61.972656 C 138.910156 61.898438 138.730469 61.863281 138.539062 61.863281 L 117.109375 61.863281 C 116.921875 61.863281 116.738281 61.898438 116.566406 61.972656 C 116.390625 62.042969 116.234375 62.148438 116.101562 62.28125 C 115.96875 62.414062 115.867188 62.570312 115.792969 62.742188 C 115.722656 62.917969 115.683594 63.101562 115.683594 63.289062 C 115.683594 63.476562 115.722656 63.660156 115.792969 63.835938 C 115.867188 64.007812 115.96875 64.164062 116.101562 64.296875 C 116.234375 64.429688 116.390625 64.535156 116.566406 64.605469 C 116.738281 64.679688 116.921875 64.714844 117.109375 64.714844 Z M 237.945312 342.890625 C 235.332031 342.890625 235.324219 346.957031 237.945312 346.957031 C 240.566406 346.957031 240.566406 342.890625 237.945312 342.890625 Z M 192.46875 194.890625 L 180.023438 194.890625 L 180.023438 224.566406 L 192.46875 224.566406 Z M 225.640625 342.890625 C 223.023438 342.890625 223.019531 346.957031 225.640625 346.957031 C 228.261719 346.957031 228.261719 342.890625 225.640625 342.890625 Z M 225.640625 342.890625 " fill-opacity="1" fill-rule="nonzero"></path></g></svg>