<svg xmlns="http://www.w3.org/2000/svg" width="5" height="5" viewBox="0 0 128 128">
  <title>DOUBLE BED</title>
  <path d="M115.621,72.354h-1.99V69.278a13.151,13.151,0,0,0-11.549-13.032V32.818a6.271,6.271,0,0,0-6.263-6.263H34.511a6.271,6.271,0,0,0-6.263,6.263V56.247A13.15,13.15,0,0,0,16.7,69.278v3.076h-1.99a1.75,1.75,0,0,0-1.75,1.75V87.645a1.751,1.751,0,0,0,1.75,1.75h3.6V99.7a1.75,1.75,0,0,0,1.75,1.75h8.161a1.751,1.751,0,0,0,1.75-1.75V89.4H99.2V99.7a1.75,1.75,0,0,0,1.75,1.75h9.322a1.75,1.75,0,0,0,1.75-1.75V89.4h3.6a1.751,1.751,0,0,0,1.75-1.75V74.1A1.75,1.75,0,0,0,115.621,72.354ZM31.748,32.818a2.766,2.766,0,0,1,2.763-2.763H95.819a2.767,2.767,0,0,1,2.763,2.763V56.141h-6.21V42.074a1.75,1.75,0,0,0-1.75-1.75H70.146a1.75,1.75,0,0,0-1.75,1.75V56.141H61.934V42.074a1.75,1.75,0,0,0-1.75-1.75H39.708a1.75,1.75,0,0,0-1.75,1.75V56.141h-6.21ZM88.872,56.141H71.9V43.824H88.872Zm-30.438,0H41.458V43.824H58.434ZM20.2,69.278a9.648,9.648,0,0,1,9.638-9.637h70.656a9.648,9.648,0,0,1,9.638,9.637v3.076H20.2Zm6.269,28.667H21.807V89.4h4.661Zm82.055,0H102.7V89.4h5.822Zm5.348-12.05H16.459V75.854h97.412Z"/>
</svg>
