<?xml version="1.0" encoding="utf-8"?>
<!-- Generator: Adobe Illustrator 23.0.6, SVG Export Plug-In . SVG Version: 6.00 Build 0)  -->
<svg version="1.1" id="Layer_1" xmlns="http://www.w3.org/2000/svg" xmlns:xlink="http://www.w3.org/1999/xlink" x="0px" y="0px"
	 viewBox="0 0 128 128" style="enable-background:new 0 0 128 128;" xml:space="preserve" width="5" height="5">
<title>SHOWER</title>
<g>
	<path d="M48.5,59.8c-1,0-1.8,0.8-1.8,1.8v1c0,1,0.8,1.8,1.8,1.8s1.8-0.8,1.8-1.8v-1C50.3,60.6,49.5,59.8,48.5,59.8z"/>
	<path d="M48.5,66.9c-1,0-1.8,0.8-1.8,1.8v2c0,1,0.8,1.8,1.8,1.8s1.8-0.8,1.8-1.8v-2C50.3,67.7,49.5,66.9,48.5,66.9z"/>
	<path d="M48.5,74.9c-1,0-1.8,0.8-1.8,1.8v2c0,1,0.8,1.8,1.8,1.8s1.8-0.8,1.8-1.8v-2C50.3,75.7,49.5,74.9,48.5,74.9
		C48.5,74.9,48.5,74.9,48.5,74.9z"/>
	<path d="M48.5,83c-1,0-1.8,0.8-1.8,1.8v1c0,1,0.8,1.8,1.8,1.8s1.8-0.8,1.8-1.8v-1C50.3,83.8,49.5,83,48.5,83z"/>
	<path d="M56.3,59.8c-1,0-1.8,0.8-1.8,1.8v1c0,1,0.8,1.8,1.8,1.8s1.8-0.8,1.8-1.8v-1C58.1,60.6,57.3,59.8,56.3,59.8z"/>
	<path d="M56.3,73.1c-1,0-1.8,0.8-1.8,1.8v1.8c0,1,0.8,1.8,1.8,1.8s1.8-0.8,1.8-1.8v-1.8C58.1,73.9,57.3,73.1,56.3,73.1z"/>
	<path d="M56.3,80.1c-1,0-1.8,0.8-1.8,1.8v1.8c0,1,0.8,1.8,1.8,1.8s1.8-0.8,1.8-1.8v-1.8C58.1,80.9,57.3,80.1,56.3,80.1z"/>
	<path d="M56.3,66.1c-1,0-1.7,0.8-1.8,1.8v1.8c0,1,0.8,1.8,1.8,1.8s1.8-0.8,1.8-1.8v-1.8C58.1,66.9,57.3,66.1,56.3,66.1
		C56.3,66.1,56.3,66.1,56.3,66.1z"/>
	<path d="M56.3,87.1c-1,0-1.7,0.8-1.8,1.8v1c0,1,0.8,1.8,1.8,1.8s1.8-0.8,1.8-1.8v-1C58.1,87.9,57.3,87.1,56.3,87.1z"/>
	<path d="M64.2,59.8c-1,0-1.7,0.8-1.8,1.7c0,0,0,0,0,0v1c0,1,0.8,1.8,1.8,1.8s1.8-0.8,1.8-1.8v-1C65.9,60.6,65.1,59.8,64.2,59.8z"/>
	<path d="M64.2,74.9c-1,0-1.7,0.8-1.8,1.7c0,0,0,0,0,0v2c0,1,0.8,1.8,1.8,1.8s1.8-0.8,1.8-1.8v-2C65.9,75.7,65.1,74.9,64.2,74.9
		C64.2,74.9,64.2,74.9,64.2,74.9z"/>
	<path d="M64.2,66.9c-1,0-1.7,0.8-1.8,1.7c0,0,0,0,0,0v2c0,1,0.8,1.8,1.8,1.8s1.8-0.8,1.8-1.8v-2C65.9,67.7,65.1,66.9,64.2,66.9z"/>
	<path d="M64.2,83c-1,0-1.7,0.8-1.8,1.7c0,0,0,0,0,0v1c0,1,0.8,1.8,1.8,1.8s1.8-0.8,1.8-1.8v-1C65.9,83.8,65.1,83,64.2,83z"/>
	<path d="M71.1,25.1h-2.1c-8.6,0-15.8,6.3-17.1,14.7c-5.4,1.9-9.1,7.1-9.1,12.8v2.7c0,1,0.8,1.8,1.8,1.8h23.8c1,0,1.8-0.8,1.8-1.8
		v-2.7c0-5.5-3.4-10.5-8.5-12.6c1-3.3,4.1-5.5,7.5-5.5h2.1c4.3,0,7.9,3.5,7.9,7.9v55.8c0,2.6,2.1,4.8,4.8,4.8s4.8-2.1,4.8-4.8l0,0
		V42.4C88.4,32.8,80.6,25.1,71.1,25.1z M66.5,52.6v1H46.2v-1c0-5.7,4.7-10.1,10.2-10.1C61.8,42.5,66.5,47,66.5,52.6z M84.9,98.2
		c0,0.7-0.6,1.3-1.3,1.3s-1.3-0.6-1.3-1.3V42.4c0-6.3-5.1-11.3-11.4-11.4h-2.1c-5,0-9.4,3.3-10.9,8.1c-0.5-0.1-1.6-0.1-2.6-0.1
		c1.6-6.1,7.1-10.4,13.4-10.5h2.1c7.6,0,13.8,6.2,13.9,13.9V98.2z"/>
</g>
</svg>
